REM Ripping Tool: trurip

FILE "Tengai Makyou - Fuun Kabuki-den - Shutsugeki no Sho (1993)(Hudson - Shogakukan)(JP)[bundled with PC Engine CD-ROM Capsule Tokubetsuban Mook].img" BINARY
  TRACK 01 AUDIO
    INDEX 01 00:00:00
  TRACK 02 MODE1/2352
    INDEX 00 00:48:52
    INDEX 01 00:51:51
  TRACK 03 AUDIO
    INDEX 00 14:41:32
    INDEX 01 15:30:44
  TRACK 04 AUDIO
    INDEX 01 17:33:34
  TRACK 05 AUDIO
    INDEX 01 18:31:73
  TRACK 06 AUDIO
    INDEX 01 20:04:40
  TRACK 07 AUDIO
    INDEX 01 21:07:36
  TRACK 08 MODE1/2352
    INDEX 00 22:01:40
    INDEX 01 22:04:39

REM DISC HASHES
REM CRC32 : 6d24e7d5
REM MD5   : 35098b14871baef505feda224515f379
REM SHA1  : ccbbb3e361cfbf09175e4ccf5d232b9e9e279acd

REM Gap Append Method: Prev [crc32]
REM Trk 01: 1c8d3340
REM Trk 02: 01ccf675
REM Trk 03: fdb9ff30
REM Trk 04: b77657e1
REM Trk 05: 9ab73728
REM Trk 06: c8905502
REM Trk 07: 904cad1b
REM Trk 08: 628fc2b2

REM Gap Append Method: Prev [md5]
REM Trk 01: 4b14a2f7b9c95308452c54ebca028982
REM Trk 02: 22f0eb9416514823a6d3ccbb64dbf972
REM Trk 03: 19b4ce399c5f8846730037bcebd32f5b
REM Trk 04: 74fe02209a5f5c99b7739ee81b4765dc
REM Trk 05: 45ed0daaffff8361a6a7cae44583d3a2
REM Trk 06: cd9dcd46140f08a3f81a6d0e9d6223af
REM Trk 07: 8a19c5e5142d1540fcbd6319362fd016
REM Trk 08: ac17c3f55a11f5ba67918b021fa53833

REM Gap Append Method: Prev [sha1]
REM Trk 01: 87cc9102c17937df6b45f03cd6810b41c162f151
REM Trk 02: 342fe98a67c36ee3ba9d54f87f67e3ac446608b0
REM Trk 03: 377381520f67617ea494278203dd2014ba62c3fa
REM Trk 04: ea0c4a3948f65a393073c68cdcb005db5e593a19
REM Trk 05: fc3184dd5b5a5dd34f6f54deb77855284bb00f44
REM Trk 06: e819aecbdf8864bf79d0cc38954230ca79043bd8
REM Trk 07: 50a9094bc13d6537d1e69d64551ecbea6bb14a61
REM Trk 08: df4bc1bacc1268fbd97daecef034976458b6115b

REM Gap Append Method: None [crc32]
REM Trk 01: 11084755
REM Trk 02: b3eb3dc5
REM Trk 03: fdb9ff30
REM Trk 04: b77657e1
REM Trk 05: 9ab73728
REM Trk 06: c8905502
REM Trk 07: 6feceb9e
REM Trk 08: 628fc2b2
REM Gap 02: 8014b1be
REM Gap 03: 1c3dfebf
REM Gap 08: 2179df76

REM Gap Append Method: None [md5]
REM Trk 01: 0d391fe073941efbb9627264acbc9db1
REM Trk 02: cc3b4627150382bbaaa647b5f7dfa216
REM Trk 03: 19b4ce399c5f8846730037bcebd32f5b
REM Trk 04: 74fe02209a5f5c99b7739ee81b4765dc
REM Trk 05: 45ed0daaffff8361a6a7cae44583d3a2
REM Trk 06: cd9dcd46140f08a3f81a6d0e9d6223af
REM Trk 07: f12fffab30b5655cd09fa783cda2884d
REM Trk 08: ac17c3f55a11f5ba67918b021fa53833
REM Gap 02: 516f22b3f1ccbfe47098ac593a89398c
REM Gap 03: 25fcd7e09e9289f7c04aa5e033f80c66
REM Gap 08: 99e913ef94d7f73241495ba6856888b8

REM Gap Append Method: None [sha1]
REM Trk 01: f6412c9ab727e8781c149f9f31f7a44a82a2f1eb
REM Trk 02: c5b4c390950e864bcab6f5fa3561eef3c4c1da52
REM Trk 03: 377381520f67617ea494278203dd2014ba62c3fa
REM Trk 04: ea0c4a3948f65a393073c68cdcb005db5e593a19
REM Trk 05: fc3184dd5b5a5dd34f6f54deb77855284bb00f44
REM Trk 06: e819aecbdf8864bf79d0cc38954230ca79043bd8
REM Trk 07: 9a8cbfaf7b114b472d2d10fea6c1040af64ba24a
REM Trk 08: df4bc1bacc1268fbd97daecef034976458b6115b
REM Gap 02: 4fb4e5273df0d4a601c0718dcfd2ea21420a7d15
REM Gap 03: c7b0b09397540f5c4ff36e97d95f33031345f560
REM Gap 08: bd3e26db993fa5639704990b58872bf2f0d90e24

REM Gap Append Method: Next [crc32]
REM Trk 01: 11084755
REM Trk 02: 4edef093
REM Trk 03: 5e0fc11c
REM Trk 04: b77657e1
REM Trk 05: 9ab73728
REM Trk 06: c8905502
REM Trk 07: 6feceb9e
REM Trk 08: 6d42e3a0

REM Gap Append Method: Next [md5]
REM Trk 01: 0d391fe073941efbb9627264acbc9db1
REM Trk 02: 22cc971a059290d7f19c499e637fbe1a
REM Trk 03: 7444d288c4b0503f7b0c4c7c92296c9a
REM Trk 04: 74fe02209a5f5c99b7739ee81b4765dc
REM Trk 05: 45ed0daaffff8361a6a7cae44583d3a2
REM Trk 06: cd9dcd46140f08a3f81a6d0e9d6223af
REM Trk 07: f12fffab30b5655cd09fa783cda2884d
REM Trk 08: 4032897ac59573a56b7b9da16e4f014c

REM Gap Append Method: Next [sha1]
REM Trk 01: f6412c9ab727e8781c149f9f31f7a44a82a2f1eb
REM Trk 02: 8bf1a63d0a28eaf0f0dd4e5f8f2b1d67a5dfc515
REM Trk 03: 07209913d9b32c61112a606a75be5918468d2697
REM Trk 04: ea0c4a3948f65a393073c68cdcb005db5e593a19
REM Trk 05: fc3184dd5b5a5dd34f6f54deb77855284bb00f44
REM Trk 06: e819aecbdf8864bf79d0cc38954230ca79043bd8
REM Trk 07: 9a8cbfaf7b114b472d2d10fea6c1040af64ba24a
REM Trk 08: 55b2d0f89f0eac57db63dd1803ec496741fed2fd

